<?xml version="1.0" encoding="utf-8"?>
<!-- Generator: Adobe Illustrator 27.5.0, SVG Export Plug-In . SVG Version: 6.00 Build 0)  -->
<svg version="1.1" id="Layer_1" xmlns="http://www.w3.org/2000/svg" xmlns:xlink="http://www.w3.org/1999/xlink" x="0px" y="0px"
	 viewBox="0 0 3000 1800" style="enable-background:new 0 0 3000 1800;" xml:space="preserve">
<rect style="fill:#FFFFFF;" width="3000" height="1800"/>
<g>
	<path style="fill:#DCECFD;" d="M295.883,1635.059h2439.892c-31.282-329.467,57.769-902.841-348.114-1041.388
		c-590.95-274.789-649.33-227.767-1157.735,147.918c-134.578,100.87-309.09,87.155-458.441,29.221
		c-198.467-63.99-375.76,54.721-480.289,218.147C133.097,1156.294,256.884,1445.72,295.883,1635.059z"/>
	<path style="fill:#FFFFFF;" d="M1931.328,900.15h-399.429c12.125-25.257,24.462-28.105,48.803-34.55
		c5.035-3.372,6.515-9.942,8.32-15.726c30.251-83.999,146.385-66.462,191.035-2.885c17.674-8.511,39.978-16.664,55.519-4.694
		c9.397,7.238,14.086,20.711,25.409,24.246c8.036,2.509,16.578-1.007,24.972-1.645
		C1902.068,863.671,1926.311,884.792,1931.328,900.15z"/>
	<path style="fill:#FFFFFF;" d="M2048.251,591.457h-216.022c4.554-9.209,14.004-14.812,24.194-16.117
		c11.254-46.673,74.287-44.154,102.003-12.924c9.922-14.736,28.916-2.109,36.419,9.183
		C2014.041,552.864,2040.79,568.949,2048.251,591.457z"/>
	<path style="fill:#FFFFFF;" d="M1429.357,1031.513h-230.584c5.527-8.412,11.051-13.139,20.748-15.836
		c14.381-55.459,89.402-55.421,124.285-18.52c12.939-17.267,41.593-8.293,42.382,13.26
		C1401.409,1004.789,1423.437,1016.404,1429.357,1031.513z"/>
	<g>
		<path style="fill:#324D90;" d="M1525.554,1635.067c-76.031-0.351-135.946,14.256-174.673-69.89
			c31.063-0.701,58.388,19.102,83.058,37.991c-28.872-25.356-36.39-67.56-34.081-105.917c32.053,27.234,62.681,58.067,79.17,96.761
			c-2.47-28.81-4.829-58.607,4.539-85.963C1515.54,1537.984,1532.807,1591.874,1525.554,1635.067z"/>
		<g>
			<polygon style="fill:#4292F3;" points="2048.774,866.772 1926.508,1034.064 1749.504,1070.353 1749.504,1340.832 
				1464.71,1635.059 2062.777,1635.059 2189.839,1049.174 			"/>
			<polygon style="fill:#BEDBFA;" points="2280.232,688.558 2048.774,866.772 2097.393,1049.174 1905.563,1162.186 
				1885.514,1443.16 1628.231,1635.059 2529.962,1635.059 2584.622,1161.808 2461.221,1044.438 2412.703,806.624 			"/>
			<polygon style="fill:#4292F3;" points="2412.703,806.624 2228.156,995.992 2266.881,1054.357 2266.881,1291.455 
				2398.469,1328.866 2404.701,1307.012 2311.236,1255.1 2337.565,1047.573 2266.881,1002.955 2428.3,883.073 			"/>
			<polygon style="fill:#4292F3;" points="1931.328,1635.059 2112.92,1403.849 2395.357,1372.949 2302.242,1416.56 2428.3,1509.676 
				2202.054,1457.814 2072.4,1504.004 2047.647,1635.059 			"/>
			<polygon style="fill:#DCECFD;" points="2097.393,1049.174 2151.136,1022.988 2179.814,1095.399 2078.616,1294.267 
				2106.427,1294.267 2234.4,1088.794 2179.814,962.555 2100.104,962.555 2048.774,866.772 			"/>
			<polygon style="fill:#DCECFD;" points="2404.701,1307.012 2416.437,1258.694 2481.576,1328.866 2458.054,1472.207 
				2438.15,1464.969 2452.625,1328.866 			"/>
			<polygon style="fill:#DCECFD;" points="1946.804,1137.89 1972.94,1328.866 1931.328,1472.207 1809.343,1606.987 
				1885.514,1443.16 1905.563,1162.186 			"/>
			<polygon style="fill:#4292F3;" points="2584.622,1161.808 2654.932,1386.114 2648.226,1635.059 2529.962,1635.059 			"/>
		</g>
		<path style="fill:#324D90;" d="M2622.271,1635.059c0,0,84.256-19.317,101.297-86.536c0,0-62.422,12.386-81.42,33.136
			c0,0,50.177-56.804,46.39-128.757c0,0-75.739,41.657-80.473,95.621c0,0-2.292-73.597-60.791-132.419
			c0,0-15.896,91.709,7.773,151.354c0,0-47.337-42.603-97.514-52.071c0,0-0.947,73.846,74.792,86.153c0,0-38.816-17.041-87.1-14.201
			C2492.964,1635.484,2538.152,1638.248,2622.271,1635.059z"/>
		<g>
			<polygon style="fill:#2A437D;" points="2294.362,683.359 2360.316,827.936 2327.339,827.936 2271.873,708.338 			"/>
			<polygon style="fill:#2A437D;" points="2186.942,683.359 2120.989,827.936 2153.965,827.936 2209.431,708.338 			"/>
			<g>
				<path style="fill:#F08F3C;" d="M2323.771,468.854c-126.996-30.211-267.653,311-113.427,345.772
					C2337.333,844.831,2477.989,503.619,2323.771,468.854z"/>
				<g>
					<path style="fill:#F9CE68;" d="M2188.53,812.553c-154.227-34.789-13.523-376.025,113.443-345.759
						C2456.191,501.575,2315.489,842.812,2188.53,812.553z"/>
					<path style="fill:#FFFFFF;" d="M2200.997,774.551c-120.326-27.142-10.551-293.369,88.506-269.756
						C2409.823,531.93,2300.049,798.158,2200.997,774.551z"/>
					<path style="fill:#F9CE68;" d="M2213.464,736.549c-86.425-19.495-7.578-210.713,63.57-193.753
						C2363.454,562.286,2284.608,753.505,2213.464,736.549z"/>
					<path style="fill:#FFFFFF;" d="M2225.931,698.546c-52.523-11.847-4.605-128.057,38.634-117.75
						C2317.085,592.641,2269.168,708.851,2225.931,698.546z"/>
					<path style="fill:#F9CE68;" d="M2258.598,641.737c-3.782,11.528-12.826,19.949-20.199,18.808
						c-18.632-4.18-1.633-45.421,13.697-41.747C2259.469,619.937,2262.38,630.208,2258.598,641.737z"/>
				</g>
			</g>
		</g>
	</g>
	<g>
		<path style="fill:#152E60;" d="M633.802,1594.54l3.571,12.51l38.572,16.531c4.595,1.969,7.574,6.487,7.574,11.487h-79.657
			l3.021-40.527H633.802z"/>
		<path style="fill:#152E60;" d="M454.973,1594.54l3.571,12.51l38.572,16.531c4.595,1.969,7.574,6.487,7.574,11.487h-79.657
			l3.021-40.527H454.973z"/>
		<g>
			<g>
				<defs>
					<path id="XMLID_00000131357406444780977350000008696107071176627346_" d="M604.06,910.482l80.283,64.809l15.153-132.834
						l34.296-3.416l10.042,168.706c0.773,12.98-4.047,25.671-13.242,34.866h0c-13.325,13.325-33.487,17.054-50.697,9.375
						l-106.201-45.141L604.06,910.482z"/>
				</defs>
				<use xlink:href="#XMLID_00000131357406444780977350000008696107071176627346_"  style="overflow:visible;fill:#4292F3;"/>
				<clipPath id="XMLID_00000106144097875200688330000007490425953036601264_">
					<use xlink:href="#XMLID_00000131357406444780977350000008696107071176627346_"  style="overflow:visible;"/>
				</clipPath>
				<path style="clip-path:url(#XMLID_00000106144097875200688330000007490425953036601264_);fill:#3C7ED7;" d="M610.408,915.417
					c0,0,60.985,69.171,69.487,136.571c8.502,67.4,0,0,0,0l-76.897-21.83L610.408,915.417"/>
			</g>
			<path style="fill:#324D90;" d="M681.953,1306.561l-38.806-182.623c-47.216,0-118.909,0-165.845,0l-52.27,477.801h37.918
				l99.792-353.582l39.482,85.663l1.081,269.312h39.841l39.619-271.315C683.993,1323.417,683.718,1314.865,681.953,1306.561z"/>
			<path style="fill:#2A437D;" d="M562.743,1248.157l14.686-57.135c67.961,165.012,57.9,125.242,25.419,297.911l-0.623-155.113
				L562.743,1248.157z"/>
			<g>
				<g>
					<defs>
						<path id="XMLID_00000003827132378449912810000004942264167061875384_" d="M564.019,904.064l4.498-42.104l0.01,0.004
							c-40.622-47.466,22.872-110.112,62.217-59.027c22.216,31.992,15.587,85.486-27.004,79.953l6.668,32.528L564.019,904.064z"/>
					</defs>
					<use xlink:href="#XMLID_00000003827132378449912810000004942264167061875384_"  style="overflow:visible;fill:#F4D2C6;"/>
					<clipPath id="XMLID_00000046324068413783823080000009773127098324758714_">
						<use xlink:href="#XMLID_00000003827132378449912810000004942264167061875384_"  style="overflow:visible;"/>
					</clipPath>
					<path style="clip-path:url(#XMLID_00000046324068413783823080000009773127098324758714_);fill:#EDA19D;" d="M603.74,882.889
						c0,0-9.331-4.01-11.346-9.414c0,0,26.407,11.099,42.591-1.714c16.184-12.813,0,0,0,0S624.437,888.596,603.74,882.889"/>
					<path style="clip-path:url(#XMLID_00000046324068413783823080000009773127098324758714_);fill:#EDA19D;" d="M596.337,823.939
						c0,0,14.933-21.956,44.56-11.402c0,0-13.503-22.675-19.461-25.202c-5.958-2.527-21.209,13.922-21.209,13.922L596.337,823.939z"
						/>
				</g>
				<path style="fill:#59445A;" d="M598.622,822.694c0,0,9.659-31.317,24.215-28.827c-22.673-37.013-97.676,5.682-77.889,45.837
					c8.009,14.099,22.772,29.702,22.772,29.702s14.393-2.289,14.589-4.164c0.195-1.875,5.315-25.835,5.315-25.835L598.622,822.694z"
					/>
				<path style="fill:#F4D2C6;" d="M602.552,833.846c-3.618,12.276-22.814,6.314-18.838-5.852
					C587.331,815.719,606.528,821.681,602.552,833.846z"/>
			</g>
			<path style="fill:#4292F3;" d="M498.609,1090.118"/>
			<path style="fill:#4292F3;" d="M683.519,1195.784"/>
			<path style="fill:#4292F3;" d="M651.816,1122.382l-40.637-214.532l-47.521-27.153c-79.448,13.709-99.578,251.973-102.887,275.356
				C460.77,1156.052,557.049,1187.125,651.816,1122.382z"/>
			<polygon style="fill:#324D90;" points="611.178,907.849 606.565,911.437 622.838,1043.63 662.56,1076.223 659.888,1024.928 			
				"/>
			<g>
				
					<rect x="765.67" y="762.515" transform="matrix(0.9902 -0.1395 0.1395 0.9902 -102.5984 124.0041)" style="fill:#324D90;" width="135.093" height="62.634"/>
				
					<rect x="685.452" y="786.247" transform="matrix(0.9902 -0.1395 0.1395 0.9902 -105.7482 109.2254)" style="fill:#2A437D;" width="81.541" height="45.317"/>
				
					<rect x="624.044" y="808.101" transform="matrix(0.9902 -0.1395 0.1395 0.9902 -107.8417 99.4012)" style="fill:#152E60;" width="62.11" height="21.65"/>
				
					<rect x="895.356" y="744.377" transform="matrix(0.9902 -0.1395 0.1395 0.9902 -100.5337 133.5369)" style="fill:#152E60;" width="13.731" height="78.952"/>
			</g>
			<g>
				<g>
					<g>
						<path style="fill:#F08F3C;" d="M903.547,1096.803l-115.29,18.746c-12.661,2.059-23.516,10.179-29.065,21.745l-32.219,67.149
							l14.992,20.044l37.312-72.059c3.632-7.013,9.973-12.237,17.552-14.459l112.316-32.921
							C911.544,1101.038,908.16,1096.053,903.547,1096.803z"/>
						<path style="fill:#F08F3C;" d="M515.243,1387.232l50.555-105.297c5.552-11.564,16.409-19.682,29.07-21.737l73.516-11.935
							l14.992,20.044l-79.665,15.433c-7.754,1.502-14.556,6.109-18.828,12.752l-63.313,98.439
							C517.046,1396.099,513.22,1391.445,515.243,1387.232z"/>
						
							<rect x="692.559" y="1199.994" transform="matrix(0.5989 0.8008 -0.8008 0.5989 1273.1125 -68.8815)" style="fill:#2A437D;" width="25.53" height="73.162"/>
					</g>
					<path style="fill:#324D90;" d="M909.144,1105.048c-123.592,93.605-262.859,197.779-387.573,289.882
						C645.158,1301.319,784.434,1197.158,909.144,1105.048L909.144,1105.048z"/>
				</g>
			</g>
			<path style="fill:#FFFFFF;" d="M611.178,907.849l-14.539,11.306c0,0-43.688-18.597-32.983-38.459L611.178,907.849z"/>
			<path style="fill:#F4D2C6;" d="M702.865,842.122c0.753-0.651-21.507-36.388-2.458-23.195c0.001,0,13.085,14.655,13.085,14.655
				l22.015-3.102l-4.862,8.874L702.865,842.122z"/>
			<path style="fill:#4292F3;" d="M573.695,940.859l8.506,135.364l123.973,135.667l-29.822,22.805
				c-15.808-13.24-140.781-95.002-148.718-111.54l0,0c-23.921-26.424-18.913-114.354-24.075-147.211L573.695,940.859z"/>
			<path style="fill:#3C7ED7;" d="M568.942,1158.166c-57.799-42.66-56.885-61.746-61.297-127.731
				c-11.87,70.283-35.63,92.204,46.631,130.412L568.942,1158.166z"/>
			<polygon style="fill:#3C7ED7;" points="634.563,1133.137 582.2,1076.223 578.8,1022.101 599.44,1076.223 643.916,1127.555 			"/>
			<path style="fill:#F4D2C6;" d="M700.623,1214.556c0,0,17.702,2.707,20.201,5.831c1.596,1.995,4.04,14.006,5.599,22.431
				c0.913,4.931-1.591,9.859-6.115,12.022c-33.655,17.706-24.866,9.136-41.363-22.128L700.623,1214.556z"/>
		</g>
	</g>
	<g>
		<g>
			<g>
				<g>
					<g>
						<polygon style="fill:#4292F3;" points="804.726,1426.942 802.109,1436.119 784.188,1418.305 786.805,1409.128 						"/>
						<polygon style="fill:#FFFFFF;" points="807.359,1417.709 804.742,1426.886 786.821,1409.073 789.438,1399.896 						"/>
						<polygon style="fill:#4292F3;" points="809.969,1408.56 807.352,1417.737 789.43,1399.923 792.048,1390.746 						"/>
						<polygon style="fill:#FFFFFF;" points="812.551,1399.507 809.934,1408.684 792.013,1390.87 794.63,1381.694 						"/>
						<polygon style="fill:#4292F3;" points="815.161,1390.357 812.543,1399.534 794.622,1381.721 797.24,1372.544 						"/>
					</g>
					<g>
						<polygon style="fill:#4292F3;" points="839.211,1394.438 841.828,1385.261 817.207,1390.941 814.589,1400.118 						"/>
						<polygon style="fill:#FFFFFF;" points="836.578,1403.671 839.195,1394.494 814.573,1400.173 811.956,1409.35 						"/>
						<polygon style="fill:#4292F3;" points="833.968,1412.82 836.586,1403.643 811.964,1409.323 809.346,1418.5 						"/>
						<polygon style="fill:#FFFFFF;" points="831.386,1421.873 834.004,1412.696 809.382,1418.376 806.765,1427.552 						"/>
						<polygon style="fill:#4292F3;" points="828.777,1431.023 831.394,1421.846 806.772,1427.525 804.155,1436.702 						"/>
					</g>
					<polygon style="fill:#152E60;" points="819.067,1391.357 749.56,1635.059 743.377,1635.103 813.36,1389.729 					"/>
				</g>
			</g>
		</g>
		<path style="fill:#152E60;" d="M774.277,1325.07l0.652-9.521c-31.146,13.71-17.319,14.596-46.26-3.161l-0.651,9.521l0,0
			l-0.64,9.363l0,0l-0.649,9.492l0,0l-0.651,9.521l19.409,12.516l-0.005,0.057l-19.408-12.516l-0.651,9.521l19.408,12.516
			l-14.228,262.679l5.798,0.002l14.351-262.277l20.931-9.759l0.651-9.521l0,0l0.649-9.493l0,0l0.642-9.392l0,0l0.648-9.492
			l-20.93,9.759l0.004-0.058L774.277,1325.07z"/>
		<g>
			<g>
				<g>
					<g>
						<polygon style="fill:#4292F3;" points="708.526,1418.253 708.671,1427.794 686.368,1415.917 686.223,1406.375 						"/>
						<polygon style="fill:#FFFFFF;" points="708.38,1408.653 708.525,1418.195 686.222,1406.318 686.077,1396.776 						"/>
						<polygon style="fill:#4292F3;" points="708.235,1399.14 708.38,1408.682 686.077,1396.804 685.932,1387.263 						"/>
						<polygon style="fill:#FFFFFF;" points="708.092,1389.727 708.237,1399.269 685.934,1387.392 685.789,1377.85 						"/>
						<polygon style="fill:#4292F3;" points="707.947,1380.214 708.092,1389.755 685.79,1377.878 685.645,1368.337 						"/>
					</g>
					<g>
						<polygon style="fill:#4292F3;" points="732.151,1377.174 732.006,1367.632 710.075,1380.181 710.22,1389.723 						"/>
						<polygon style="fill:#FFFFFF;" points="732.297,1386.773 732.152,1377.231 710.221,1389.781 710.366,1399.323 						"/>
						<polygon style="fill:#4292F3;" points="732.442,1396.286 732.297,1386.745 710.365,1399.294 710.51,1408.836 						"/>
						<polygon style="fill:#FFFFFF;" points="732.585,1405.699 732.44,1396.157 710.508,1408.707 710.653,1418.249 						"/>
						<polygon style="fill:#4292F3;" points="732.729,1415.213 732.584,1405.671 710.653,1418.22 710.798,1427.762 						"/>
					</g>
					
						<rect x="583.369" y="1504.685" transform="matrix(-0.0152 -0.9999 0.9999 -0.0152 -785.7255 2241.4294)" style="fill:#152E60;" width="255.158" height="5.934"/>
				</g>
			</g>
		</g>
	</g>
</g>
<path style="fill:#152E60;" d="M110.2,1634.749c888.949-6.129,1799.444-6.179,2688.395-0.001
	C1909.646,1640.928,999.15,1640.878,110.2,1634.749L110.2,1634.749z"/>
</svg>
